<svg width="260" height="187" viewBox="0 0 260 187" fill="none" xmlns="http://www.w3.org/2000/svg"><path d="M90.133 71h-8.266v17.6l-7.395 7.558c-.929.95-.395 2.842.802 2.842h21.452c1.197 0 1.731-1.892.802-2.842L90.133 88.6V71z" fill="#C4C4C4"/><rect x="23.5" y="1.5" width="130.109" height="71.874" rx="1.5" fill="#313131" stroke="#999" stroke-width="3"/><rect x="41" y="8" width="45" height="3" rx="1" fill="#BCDCAC"/><rect x="41" y="15" width="17" height="3" rx="1" fill="#919191"/><rect x="41" y="15" width="17" height="3" rx="1" fill="#919191"/><rect x="41" y="21" width="26" height="3" rx="1" fill="#97BAD3"/><rect x="41" y="27" width="8" height="3" rx="1" fill="#BB9EC6"/><rect x="61" y="15" width="39" height="3" rx="1" fill="#919191"/><rect x="61" y="15" width="39" height="3" rx="1" fill="#919191"/><rect x="29" y="8" width="7" height="7" rx="1" fill="#A29AD3"/><rect x="246.5" y="108.5" width="12" height="77" rx="1.5" fill="#F2E3BB" stroke="#D0C096" stroke-width="3"/><rect x="23.5" y="108.5" width="12" height="77" rx="1.5" fill="#F2E3BB" stroke="#D0C096" stroke-width="3"/><rect x="23.5" y="100.5" width="235" height="13" rx="1.5" fill="#F2E3BB" stroke="#D0C096" stroke-width="3"/><path fill="#BECFE9" d="M196.722 65.355l2.963-.47 2.19 13.828-2.963.47z"/><path fill="#A9BCDA" d="M196.722 65.355l.988-.156 2.19 13.827-.988.157z"/><mask id="a" maskUnits="userSpaceOnUse" x="196" y="60" width="4" height="6"><path d="M197.31 61.007c.033-.245.365-.298.473-.075l1.902 3.953-2.963.47.588-4.348z" fill="#F2E3BB"/></mask><g mask="url(#a)"><path d="M197.31 61.007c.033-.245.365-.298.473-.075l1.902 3.953-1.403.729-1.56-.26.588-4.347z" fill="#F2E3BB"/><circle cx="197.539" cy="60.922" r=".5" transform="rotate(-9 197.539 60.922)" fill="#F77272"/></g><path fill="#fff" stroke="#CECDCD" d="M200.572 58.667l6.914-1.095 4.224 26.668-6.914 1.095z"/><path stroke="#CECDCD" d="M207.461 60.613l-2.963.47M207.461 60.613l-2.963.47M207.461 60.613l-2.963.47M207.931 63.576l-1.976.313M207.931 63.576l-1.976.313M207.931 63.576l-1.976.313M208.4 66.54l-2.963.469M208.4 66.54l-2.963.469M208.4 66.54l-2.963.469M208.869 69.502l-1.975.313M208.869 69.502l-1.975.313M208.869 69.502l-1.975.313M209.339 72.466l-2.964.469M209.339 72.466l-2.964.469M209.339 72.466l-2.964.469M209.808 75.429l-1.976.313M209.808 75.429l-1.976.313M209.808 75.429l-1.976.313M210.277 78.392l-2.963.469M210.277 78.392l-2.963.469M210.277 78.392l-2.963.469M210.746 81.355l-1.975.313M210.746 81.355l-1.975.313M210.746 81.355l-1.975.313"/><path stroke="#A9A9A9" d="M200.494 58.173l4.38 27.656"/><path fill="#BCE2B9" d="M194.939 68.808l2.427-1.763 8.229 11.326-2.427 1.763z"/><path fill="#A9CCA7" d="M194.939 68.808l.809-.588 8.229 11.327-.81.587z"/><mask id="b" maskUnits="userSpaceOnUse" x="192" y="63" width="6" height="6"><path d="M193.489 64.668c-.082-.234.19-.431.387-.281l3.49 2.658-2.427 1.763-1.45-4.14z" fill="#F2E3BB"/></mask><g mask="url(#b)"><path d="M193.489 64.668c-.082-.234.19-.431.387-.281l3.49 2.658-.92 1.286-1.507.477-1.45-4.14z" fill="#F2E3BB"/><circle cx="193.654" cy="64.489" r=".5" transform="rotate(-36 193.654 64.489)" fill="#A7A6E8"/></g><path d="M218.801 65.274c-.26 1.644-.759 2.93-2.146 2.711-1.388-.22-1.464-1.598-1.204-3.242s3.944-5.155 3.235-4.163c-.709.991.376 3.05.115 4.694z" fill="#C1C1C1"/><path d="M216.007 65.436c.643-2.047 1.369-2.568 1.652-2.573" stroke="#A5A5A5" stroke-width=".339"/><path d="M215.245 66.044l3.35.531-4.962 26.04a.662.662 0 01-1.307-.197l2.919-26.374z" fill="#B7A891"/><mask id="c" maskUnits="userSpaceOnUse" x="211" y="66" width="8" height="28"><path d="M215.245 66.044l3.35.531-4.962 26.04a.662.662 0 01-1.307-.197l2.919-26.374z" fill="#B7A891"/></mask><g mask="url(#c)"><path fill="#A49580" d="M213.329 64.093l3.367.413-3.514 28.617-3.367-.413z"/></g><path d="M201.508 96.381L198.749 78.5h18.554l-2.197 17.806a2.5 2.5 0 01-2.481 2.194h-8.646a2.5 2.5 0 01-2.471-2.119z" fill="#F9AFAF" stroke="#CB8888" stroke-width="3"/><mask id="d" maskUnits="userSpaceOnUse" x="197" y="77" width="22" height="23"><path d="M201.508 96.381L198.749 78.5h18.554l-2.197 17.806a2.5 2.5 0 01-2.481 2.194h-8.646a2.5 2.5 0 01-2.471-2.119z" fill="#F9AFAF" stroke="#CB8888" stroke-width="3"/></mask><g mask="url(#d)"><path d="M202.5 91c0 .743-.202 1.394-.502 1.844-.302.454-.665.656-.998.656-.333 0-.696-.203-.998-.656-.3-.45-.502-1.1-.502-1.844 0-.743.202-1.394.502-1.844.302-.454.665-.656.998-.656.333 0 .696.203.998.656.3.45.502 1.1.502 1.844zM202.168 83.72c.437-.6.982-1.008 1.49-1.196.511-.19.923-.14 1.193.056.269.196.444.573.422 1.118-.022.54-.241 1.185-.678 1.786-.437.602-.983 1.01-1.49 1.197-.511.19-.924.14-1.193-.056-.27-.196-.444-.573-.422-1.117.022-.54.241-1.186.678-1.787zM198.168 85.484c-.437-.601-.656-1.246-.678-1.786-.022-.545.152-.922.422-1.118.269-.196.682-.245 1.193-.056.507.188 1.053.596 1.49 1.197.437.602.656 1.246.678 1.787.022.544-.153.921-.422 1.117-.27.196-.682.245-1.193.056-.508-.188-1.053-.595-1.49-1.197z" fill="#FFF389" stroke="#D1CA8B"/><path d="M198.935 90.256c-.707.23-1.388.239-1.909.092-.525-.147-.83-.43-.932-.746-.103-.317-.023-.725.315-1.152.335-.425.892-.818 1.599-1.047.707-.23 1.388-.24 1.908-.093.525.147.83.43.933.747.103.316.022.724-.316 1.152-.335.424-.891.817-1.598 1.047zM204.935 87.403c.707.23 1.263.622 1.598 1.047.338.427.419.835.316 1.152-.103.316-.408.599-.933.746-.52.147-1.201.138-1.908-.092-.707-.23-1.264-.623-1.599-1.047-.338-.428-.418-.836-.315-1.152.102-.317.407-.6.932-.747.521-.146 1.202-.137 1.909.093z" fill="#FFF389" stroke="#D1CA8B"/><circle cx="201.25" cy="88.25" r="1.75" fill="#fff" stroke="#D7D7D7"/></g><path d="M27.186 126.77c0 .986-.301 1.643-.741 2.16-.46.54-1.081.942-1.783 1.393l-.012.008c-.674.434-1.424.917-1.994 1.597-.505.603-.86 1.348-.953 2.327-1.552-.161-2.755-1.104-3.607-2.436-.943-1.474-1.423-3.38-1.423-5.049 0-4.071 2.698-7.441 7.364-8.942 1.798 1.907 3.149 4.8 3.149 8.942z" fill="#C6DEC4" stroke="#A2C59F" stroke-width="1.001"/><path d="M24.213 118.686a.5.5 0 10-.743-.671l.743.671zm-.743-.671l-.139.154.743.671.14-.154-.744-.671zm-.139.154a11.508 11.508 0 00-2.639 4.978l.973.238a10.507 10.507 0 012.41-4.545l-.744-.671z" fill="#A2C59F"/><path d="M15.056 157.768c0 .986-.301 1.643-.74 2.16-.46.539-1.082.941-1.784 1.393l-.012.008c-.674.434-1.423.917-1.993 1.597-.505.603-.86 1.348-.953 2.327-1.553-.161-2.755-1.104-3.607-2.436-.944-1.474-1.423-3.38-1.423-5.049 0-4.072 2.698-7.441 7.364-8.942 1.798 1.907 3.148 4.8 3.148 8.942z" fill="#C6DEC4" stroke="#A2C59F" stroke-width="1.001"/><path d="M12.084 149.684a.5.5 0 10-.743-.671l.743.671zm-.743-.671l-.14.154.743.671.14-.154-.743-.671zm-.14.154a11.508 11.508 0 00-2.638 4.978l.972.238a10.507 10.507 0 012.41-4.545l-.743-.671z" fill="#A2C59F"/><path d="M23.34 158.101c.372.441.484.849.481 1.246-.003.415-.13.829-.275 1.296l-.002.008c-.14.448-.294.947-.293 1.466 0 .461.121.928.448 1.402-.757.512-1.65.541-2.534.265-.977-.306-1.91-.98-2.537-1.729-1.532-1.825-1.59-4.351-.063-6.779 1.523.178 3.217.967 4.776 2.825z" fill="#C6DEC4" stroke="#A2C59F" stroke-width=".586"/><path d="M18.967 155.594a.293.293 0 00-.586-.021l.586.021zm-.586-.021l-.004.121.585.022.005-.122-.586-.021zm-.004.121a6.734 6.734 0 00.69 3.225l.525-.259a6.149 6.149 0 01-.63-2.944l-.585-.022z" fill="#A2C59F"/><path d="M19.744 168.804c.15.557.079.974-.092 1.333-.178.375-.468.696-.797 1.058l-.005.006c-.316.347-.666.734-.885 1.205a2.404 2.404 0 00-.187 1.459c-.902.145-1.724-.206-2.408-.83-.756-.69-1.316-1.695-1.57-2.639-.616-2.302.399-4.615 2.81-6.171 1.305.806 2.506 2.237 3.134 4.579z" fill="#C6DEC4" stroke="#A2C59F" stroke-width=".586"/><path d="M16.839 164.684a.294.294 0 00-.128-.395.294.294 0 00-.394.128l.522.267zm-.522-.267l-.055.108.521.267.056-.108-.522-.267zm-.055.108a6.736 6.736 0 00-.738 3.214l.586-.013a6.144 6.144 0 01.674-2.934l-.522-.267z" fill="#A2C59F"/><path d="M43.358 111.945c0 .986-.3 1.643-.74 2.16-.46.54-1.082.942-1.783 1.393l-.012.008c-.674.434-1.424.917-1.994 1.597-.505.603-.86 1.348-.953 2.327-1.552-.161-2.755-1.104-3.607-2.436-.943-1.474-1.423-3.38-1.423-5.049 0-4.071 2.698-7.441 7.364-8.942 1.798 1.907 3.148 4.8 3.148 8.942z" fill="#C6DEC4" stroke="#A2C59F" stroke-width="1.001"/><path d="M40.386 103.861a.5.5 0 10-.743-.671l.743.671zm-.743-.671l-.14.154.744.671.139-.154-.743-.671zm-.14.154a11.508 11.508 0 00-2.638 4.978l.973.238a10.507 10.507 0 012.409-4.545l-.743-.671z" fill="#A2C59F"/><path d="M39.906 101.629c-.485.28-.881.314-1.247.247-.396-.073-.776-.265-1.238-.503l-.018-.009c-.433-.223-.943-.485-1.51-.585a2.695 2.695 0 00-1.46.145c-.274-.76-.145-1.563.253-2.33.476-.92 1.316-1.736 2.178-2.234 2.054-1.186 4.548-.842 6.715 1.067-.47 1.46-1.56 2.983-3.673 4.202z" fill="#C6DEC4" stroke="#A2C59F" stroke-width="1.001"/><path d="M43.356 97.912a.5.5 0 10.21-.979l-.21.98zm.21-.979l-.125-.026-.21.979.125.026.21-.979zm-.125-.026a7.275 7.275 0 00-3.56.129l.28.96a6.273 6.273 0 013.07-.11l.21-.98z" fill="#A2C59F"/><path d="M28.005 113.197c-.76 1.087-1.6 1.579-2.484 1.809-.924.24-1.92.204-3.042.16h-.02c-1.078-.042-2.277-.089-3.43.221-1.023.276-1.99.823-2.848 1.83-1.588-1.376-2.186-3.344-2.097-5.471.098-2.353 1.04-4.825 2.33-6.666 3.143-4.49 8.72-6.122 15.024-4.174.51 3.49-.234 7.723-3.433 12.291z" fill="#C6DEC4" stroke="#A2C59F" stroke-width="1.348"/><path d="M30.97 101.987a.673.673 0 10-.301-1.314l.3 1.314zm-.301-1.314l-.273.063.301 1.314.273-.063-.301-1.314zm-.273.063a15.483 15.483 0 00-6.753 3.452l.888 1.013a14.14 14.14 0 016.166-3.151l-.3-1.314z" fill="#A2C59F"/><path d="M27.935 140.417c1.149.664 1.712 1.457 2.019 2.318.32.899.37 1.894.424 3.016l.001.019c.052 1.078.11 2.277.52 3.399.363.995.993 1.91 2.071 2.677-1.232 1.702-3.141 2.469-5.267 2.566-2.353.108-4.898-.616-6.844-1.74-4.747-2.74-6.859-8.153-5.468-14.603 3.433-.813 7.715-.44 12.544 2.348z" fill="#C6DEC4" stroke="#A2C59F" stroke-width="1.348"/><path d="M16.51 138.441a.674.674 0 00-1.283.414l1.282-.414zm-1.283.414l.086.266 1.282-.414-.086-.266-1.282.414zm.086.266a15.487 15.487 0 004.027 6.427l.932-.973a14.14 14.14 0 01-3.677-5.868l-1.282.414z" fill="#A2C59F"/><path d="M13.517 138.234c.228.852.12 1.476-.135 2.012-.272.572-.719 1.069-1.252 1.657l-.018.019c-.503.554-1.086 1.197-1.452 1.984a4.048 4.048 0 00-.347 2.267c-1.303.142-2.5-.386-3.52-1.316-1.187-1.084-2.072-2.669-2.47-4.159-.96-3.576.583-7.19 4.336-9.66 2.017 1.282 3.876 3.531 4.858 7.196z" fill="#C6DEC4" stroke="#A2C59F" stroke-width="1.348"/><path d="M9.206 131.63a.674.674 0 10-1.2-.614l1.2.614zm-1.2-.614l-.089.174 1.2.614.089-.174-1.2-.614zm-.089.174a11.064 11.064 0 00-1.212 5.28l1.348-.03a9.714 9.714 0 011.064-4.636l-1.2-.614z" fill="#A2C59F"/><path d="M12.607 127.435c-.44.764-.959 1.128-1.517 1.326-.598.213-1.264.248-2.057.287l-.026.001c-.748.036-1.615.078-2.43.376a4.05 4.05 0 00-1.848 1.357c-1.023-.821-1.495-2.041-1.558-3.418-.074-1.607.421-3.353 1.192-4.689 1.852-3.206 5.498-4.671 9.898-3.764.52 2.332.244 5.238-1.653 8.524z" fill="#C6DEC4" stroke="#A2C59F" stroke-width="1.348"/><path d="M14.23 119.716a.673.673 0 10-.415-1.282l.414 1.282zm-.415-1.282l-.186.06.414 1.282.186-.06-.414-1.282zm-.186.06a11.069 11.069 0 00-4.59 2.876l.973.932a9.715 9.715 0 014.03-2.526l-.413-1.282z" fill="#A2C59F"/></svg>