<svg width="293" height="167" viewBox="0 0 293 167" fill="none" xmlns="http://www.w3.org/2000/svg"><rect x="126" width="167" height="91" rx="8" fill="#F1E0E0"/><rect x="141" y="72" width="3" height="13.313" rx="1" fill="#E76B6B"/><rect x="151.143" y="52.318" width="3" height="32.682" rx="1" fill="#E76B6B"/><rect x="162.413" y="41.047" width="3" height="43.952" rx="1" fill="#E76B6B"/><rect x="173.682" y="41.047" width="3" height="43.952" rx="1" fill="#E76B6B"/><rect x="184.953" y="54.572" width="3" height="30.429" rx="1" fill="#E76B6B"/><rect x="196.222" y="70.349" width="3" height="14.651" rx="1" fill="#E76B6B"/><rect x="207.492" y="70.349" width="3" height="14.651" rx="1" fill="#E76B6B"/><rect x="218.762" y="51.191" width="3" height="33.809" rx="1" fill="#E76B6B"/><rect x="231.158" y="42.174" width="3" height="42.825" rx="1" fill="#E76B6B"/><rect x="241.302" y="14" width="3" height="71" rx="1" fill="#E76B6B"/><rect x="251.445" y="42.174" width="3" height="42.825" rx="1" fill="#E76B6B"/><rect x="261.587" y="59.08" width="3" height="25.921" rx="1" fill="#E76B6B"/><rect x="271.73" y="68.095" width="3" height="16.905" rx="1" fill="#E76B6B"/><rect x="283" y="78.238" width="3" height="6.762" rx="1" fill="#E76B6B"/><path fill-rule="evenodd" clip-rule="evenodd" d="M2.593 14A2.593 2.593 0 000 16.593v147.814A2.593 2.593 0 002.593 167h222.153a2.593 2.593 0 002.593-2.593V16.593A2.593 2.593 0 00224.746 14H2.593zM129 32a3 3 0 00-3 3v123a3 3 0 003 3h90a3 3 0 003-3V35a3 3 0 00-3-3h-90z" fill="#242424"/><path d="M0 26.102h227.339v-9.509A2.593 2.593 0 00224.746 14H2.593A2.593 2.593 0 000 16.593v9.509z" fill="#F6F6F6"/><circle cx="6.051" cy="20.051" r="2.593" fill="#ED6A5E"/><circle cx="12.966" cy="20.051" r="2.593" fill="#F5BE4F"/><circle cx="19.881" cy="20.051" r="2.593" fill="#61C454"/><rect x="18" y="35" width="45" height="3" rx="1" fill="#BCDCAC"/><rect x="18" y="133" width="45" height="3" rx="1" fill="#BCDCAC"/><rect x="18" y="42" width="17" height="3" rx="1" fill="#919191"/><rect x="18" y="42" width="17" height="3" rx="1" fill="#919191"/><rect x="18" y="48" width="26" height="3" rx="1" fill="#97BAD3"/><rect x="18" y="99" width="26" height="3" rx="1" fill="#97BAD3"/><rect x="48" y="99" width="61" height="3" rx="1" fill="#E76B6B"/><rect x="48" y="106.515" width="8" height="3" rx="1" fill="#E76B6B"/><rect x="18" y="54" width="8" height="3" rx="1" fill="#BB9EC6"/><rect x="38" y="42" width="39" height="3" rx="1" fill="#919191"/><rect x="38" y="42" width="39" height="3" rx="1" fill="#919191"/><rect x="48" y="121" width="50" height="3" rx="1" fill="#919191"/><rect x="48" y="121" width="50" height="3" rx="1" fill="#919191"/><rect x="48" y="114" width="39" height="3" rx="1" fill="#919191"/><rect x="48" y="114" width="39" height="3" rx="1" fill="#919191"/><rect x="6" y="35" width="7" height="7" rx="1" fill="#A29AD3"/><circle cx="132" cy="40" r="4" fill="#C4C4C4"/><path d="M134.5 102l-.805-1.265.805 1.265zm-27.5 6l-.016-1.5.016 1.5zm-55.5 0l-.013 1.5H51.509l.066.001.26.002 1.012.008a3717.438 3717.438 0 0017.02.092c10.753.034 24.636.034 37.149-.103l-.032-3c-12.493.137-26.36.137-37.106.103a4012.683 4012.683 0 01-17.007-.092l-1.01-.008-.26-.002-.066-.001h-.02-.001L51.5 108zm55.516 1.5c14.33-.157 22.464-2.527 28.289-6.235l-1.61-2.53c-5.175 3.292-12.682 5.611-26.711 5.765l.032 3zm28.289-6.235C139.391 100.666 144 96.82 144 90h-3c0 5.18-3.391 8.244-7.305 10.735l1.61 2.53zM144 90v-.035-.035-.035-.035-.035-.035-.035-.035-.035-.035-.035-.034-.035-.035-.034-.035-.035-.034-.035-.034-.035-.034-.034-.035-.034-.034-.034-.034-.034-.035-.034-.034-.034-.034-.034-.033-.034-.034-.034-.033-.034-.034-.033-.034-.033-.034-.033-.034-.033-.033-.033-.034-.033-.033-.033-.033-.033-.033-.033-.033-.033-.032-.033-.033-.032-.033-.033-.032-.033-.032-.033-.032-.032-.033-.032-.032-.032-.032-.032-.032-.032-.032-.032-.032-.031-.032-.032-.032-.031-.032-.031-.032-.031-.031-.032-.031-.031-.031-.031-.032-.03-.032-.03-.031-.031-.031-.03-.031-.031-.03-.031-.03-.031-.03-.031-.03-.03-.03-.03-.03-.031-.03-.03-.03-.03-.03-.03-.029-.03-.03-.029-.03-.029-.029-.03-.028-.03-.029-.029-.03-.028-.03-.028-.029-.029-.028-.029-.029-.028-.029-.028-.029-.028-.028-.029-.028-.028-.028-.028-.028-.028-.028-.028-.027-.028-.028-.027-.028-.027-.028-.027-.027-.028-.027-.027-.027-.027-.027-.027-.027-.026-.027-.027-.026-.027-.026-.027-.026-.026-.027-.026-.026-.026-.026-.026-.026-.026-.026-.025-.026-.025-.026-.025-.026-.025-.025-.026-.025-.025-.025-.025-.025-.025-.024-.025-.025-.024-.025-.024-.024-.025-.024-.024-.025-.023-.025-.023-.024-.024-.024-.024-.023-.024V83v-.024-.023-.023-.024-.023-.023-.023-.023-.023-.022-.023-.023-.022-.023-.022-.023-.022-.023-.022-.022-.022-.022-.022-.022-.022-.021-.022-.022-.021-.022-.021-.021-.022-.02-.022-.02-.022-.02-.022-.02-.02-.022-.02-.02-.02-.021-.02-.02-.02-.02-.02-.02-.02-.02-.02-.02-.019-.02-.019-.02-.018-.02-.019-.019-.019-.018-.02-.018-.019-.018-.019-.018-.018-.019-.018-.018-.018-.018-.018-.018-.017-.018-.017-.018-.017-.018-.017-.017-.017-.017-.017-.017-.017-.017-.016-.017-.016-.017-.016-.016-.017-.016-.016-.016-.015-.016-.016-.016-.015-.016-.015-.015-.015-.016-.014-.016-.014-.015-.015-.015-.014-.015-.014-.014-.014-.015-.014-.014-.014-.013-.014-.014-.013-.014-.013-.014-.013-.013-.013-.013-.013-.013-.012-.013-.013-.012-.013-.012-.012-.012-.012-.012-.012-.012-.011-.012-.012-.011-.011-.012-.01-.012-.01-.012-.01-.011-.011-.01-.011-.01-.01-.011-.01-.01-.01-.01-.01-.01-.009-.01-.009-.01-.008-.01-.009-.009-.008-.01-.008-.008-.009-.008-.009-.008-.008-.008-.008-.008-.008-.007-.008-.007-.008-.007-.007-.007-.007-.007-.007-.007-.006-.007-.007-.006-.006-.006-.006-.006-.006-.006-.006-.005-.006-.005-.006-.005-.005-.005-.005-.005-.005-.004-.005-.004-.005-.004-.004-.004-.004-.004-.004-.003-.004-.003-.004-.003-.003-.003-.003-.003-.003-.003-.002-.003-.002-.002-.003-.002-.002-.001-.002-.002-.002-.001-.001-.002-.002-.002-.001-.001l-1.5-.001H141V90h3z" fill="#E76B6B"/><path d="M116.5 108.122l-.016 1.5.016-1.5zm-55.5 0l-.013-1.5H61.009l.066-.001.26-.002 1.012-.008a3198.641 3198.641 0 0117.021-.092c10.752-.034 24.635-.034 37.148.103l-.032 3c-12.493-.137-26.36-.137-37.106-.103a4012.683 4012.683 0 00-18.017.1l-.26.002h-.066l-.016.001h-.004-.001l-.014-1.5zm55.516-1.5c14.273.156 21.434 1.887 27.289 5.613l-1.61 2.53c-5.145-3.274-11.625-4.989-25.711-5.143l.032-3z" fill="#E76B6B"/><circle cx="146" cy="116" r="6" fill="#E76B6B"/><path fill="#C4C4C4" d="M155 111h62v6h-62zM155 120h62v6h-62zM155 129h62v6h-62z"/></svg>