<svg width="135" height="116" viewBox="0 0 135 116" fill="none" xmlns="http://www.w3.org/2000/svg">
<path d="M61.7162 46.5603C62.9895 47.2954 63.6256 48.1844 63.9699 49.1523C64.3245 50.149 64.3784 51.2458 64.4362 52.4375L64.4365 52.4438C64.4927 53.6047 64.5534 54.8573 64.9796 56.0248C65.3719 57.0993 66.0658 58.0856 67.2922 58.9045C65.9338 60.9194 63.7621 61.8107 61.3688 61.9202C58.8081 62.0373 56.0482 61.251 53.938 60.0326C48.7338 57.028 46.4611 51.0824 48.0212 44.0608C51.7692 43.1366 56.4497 43.5197 61.7162 46.5603Z" fill="#C6DEC4" stroke="#A2C59F" stroke-width="1.00117"/>
<path d="M49.1919 44.7067C49.107 44.4436 48.8248 44.2992 48.5617 44.3842C48.2986 44.4692 48.1543 44.7513 48.2392 45.0144L49.1919 44.7067ZM52.5768 52.0736C52.7765 52.2648 53.0934 52.2579 53.2846 52.0582C53.4758 51.8585 53.4689 51.5416 53.2692 51.3504L52.5768 52.0736ZM52.2273 51.0459L52.5735 50.6844L52.2273 51.0459ZM48.2392 45.0144L48.6271 46.215L49.5798 45.9072L49.1919 44.7067L48.2392 45.0144ZM51.8811 51.4075L52.5768 52.0736L53.2692 51.3504L52.5735 50.6844L51.8811 51.4075ZM48.6271 46.215C49.2647 48.1887 50.3829 49.9731 51.8811 51.4075L52.5735 50.6844C51.1951 49.3647 50.1664 47.7231 49.5798 45.9072L48.6271 46.215Z" fill="#A2C59F"/>
<path d="M91.6005 83.9559C92.8738 84.6911 93.5099 85.58 93.8542 86.548C94.2088 87.5446 94.2627 88.6414 94.3205 89.8332L94.3208 89.8394C94.377 91.0003 94.4377 92.253 94.8639 93.4204C95.2562 94.4949 95.9501 95.4812 97.1765 96.3001C95.8181 98.315 93.6464 99.2063 91.2531 99.3158C88.6924 99.433 85.9325 98.6466 83.8223 97.4283C78.6181 94.4236 76.3454 88.478 77.9055 81.4564C81.6535 80.5322 86.334 80.9153 91.6005 83.9559Z" fill="#C6DEC4" stroke="#A2C59F" stroke-width="1.00117"/>
<path d="M79.0763 82.1023C78.9913 81.8392 78.7091 81.6948 78.4461 81.7798C78.183 81.8648 78.0386 82.147 78.1236 82.41L79.0763 82.1023ZM82.4611 89.4692C82.6608 89.6604 82.9777 89.6535 83.1689 89.4538C83.3601 89.2541 83.3532 88.9373 83.1535 88.7461L82.4611 89.4692ZM82.1116 88.4416L82.4578 88.08L82.1116 88.4416ZM78.1236 82.41L78.5114 83.6106L79.4641 83.3028L79.0763 82.1023L78.1236 82.41ZM81.7654 88.8032L82.4611 89.4692L83.1535 88.7461L82.4578 88.08L81.7654 88.8032ZM78.5114 83.6106C79.149 85.5844 80.2672 87.3687 81.7654 88.8032L82.4578 88.08C81.0794 86.7603 80.0507 85.1187 79.4641 83.3028L78.5114 83.6106Z" fill="#A2C59F"/>
<path d="M97.8396 73.9403C98.687 73.7909 99.3067 73.9502 99.8252 74.2546C100.359 74.568 100.796 75.0395 101.27 75.5521L101.273 75.5548C101.735 76.0541 102.233 76.5929 102.863 76.956C103.444 77.2902 104.126 77.4714 104.984 77.3771C105.133 78.7915 104.494 80.0082 103.462 80.9577C102.358 81.9736 100.825 82.6593 99.4206 82.907C95.957 83.5177 92.7012 81.707 90.759 77.9719C92.0918 76.1475 94.3344 74.5584 97.8396 73.9403Z" fill="#C6DEC4" stroke="#A2C59F" stroke-width="0.58597"/>
<path d="M91.5271 77.821C91.39 77.735 91.2092 77.7764 91.1232 77.9135C91.0372 78.0505 91.0787 78.2314 91.2157 78.3174L91.5271 77.821ZM95.8163 79.8505C95.9777 79.8611 96.1172 79.7388 96.1278 79.5773C96.1384 79.4159 96.0161 79.2764 95.8546 79.2658L95.8163 79.8505ZM91.997 78.4615L91.8413 78.7097L91.997 78.4615ZM95.2729 79.5213L95.2921 79.2289L95.2729 79.5213ZM91.2157 78.3174L91.8413 78.7097L92.1527 78.2133L91.5271 77.821L91.2157 78.3174ZM95.2538 79.8136L95.8163 79.8505L95.8546 79.2658L95.2921 79.2289L95.2538 79.8136ZM91.8413 78.7097C92.8697 79.3548 94.0424 79.7341 95.2538 79.8136L95.2921 79.2289C94.1776 79.1558 93.0988 78.8068 92.1527 78.2133L91.8413 78.7097Z" fill="#A2C59F"/>
<path d="M108.639 86.1188C109.47 86.3415 109.964 86.7477 110.306 87.2428C110.657 87.7525 110.854 88.3644 111.067 89.0294L111.068 89.0329C111.276 89.6807 111.5 90.3796 111.917 90.9751C112.302 91.5231 112.844 91.9756 113.661 92.2528C113.198 93.5977 112.106 94.4305 110.769 94.855C109.339 95.3091 107.66 95.2826 106.282 94.9135C102.885 94.0032 100.699 90.9862 100.518 86.7803C102.497 85.69 105.201 85.1976 108.639 86.1188Z" fill="#C6DEC4" stroke="#A2C59F" stroke-width="0.58597"/>
<path d="M101.278 86.968C101.19 86.8321 101.008 86.7932 100.872 86.8811C100.737 86.969 100.698 87.1504 100.786 87.2863L101.278 86.968ZM104.307 90.6201C104.449 90.6979 104.627 90.646 104.705 90.5041C104.783 90.3623 104.731 90.1842 104.589 90.1063L104.307 90.6201ZM101.433 87.7471L101.187 87.9063L101.433 87.7471ZM103.954 90.092L104.095 89.8352L103.954 90.092ZM100.786 87.2863L101.187 87.9063L101.679 87.588L101.278 86.968L100.786 87.2863ZM103.813 90.3489L104.307 90.6201L104.589 90.1063L104.095 89.8352L103.813 90.3489ZM101.187 87.9063C101.846 88.9255 102.749 89.7649 103.813 90.3489L104.095 89.8352C103.116 89.2979 102.285 88.5257 101.679 87.588L101.187 87.9063Z" fill="#A2C59F"/>
<path d="M54.8818 15.7581C56.1551 16.4932 56.7912 17.3822 57.1356 18.3501C57.4902 19.3467 57.544 20.4435 57.6018 21.6353L57.6021 21.6415C57.6583 22.8024 57.719 24.0551 58.1452 25.2225C58.5376 26.2971 59.2314 27.2833 60.4578 28.1022C59.0995 30.1171 56.9278 31.0085 54.5344 31.1179C51.9737 31.2351 49.2138 30.4487 47.1036 29.2304C41.8994 26.2257 39.6267 20.2802 41.1868 13.2586C44.9348 12.3343 49.6153 12.7174 54.8818 15.7581Z" fill="#C6DEC4" stroke="#A2C59F" stroke-width="1.00117"/>
<path d="M42.3574 13.9045C42.2724 13.6414 41.9903 13.497 41.7272 13.582C41.4641 13.667 41.3197 13.9491 41.4047 14.2122L42.3574 13.9045ZM45.7423 21.2714C45.942 21.4626 46.2588 21.4557 46.45 21.256C46.6412 21.0563 46.6343 20.7394 46.4346 20.5482L45.7423 21.2714ZM45.3928 20.2438L45.7389 19.8822L45.3928 20.2438ZM41.4047 14.2122L41.7925 15.4128L42.7452 15.105L42.3574 13.9045L41.4047 14.2122ZM45.0466 20.6053L45.7423 21.2714L46.4346 20.5482L45.7389 19.8822L45.0466 20.6053ZM41.7925 15.4128C42.4301 17.3866 43.5483 19.1709 45.0466 20.6053L45.7389 19.8822C44.3606 18.5625 43.3318 16.9209 42.7452 15.105L41.7925 15.4128Z" fill="#A2C59F"/>
<path d="M39.6611 12.8293C39.6611 13.6879 39.3996 14.2563 39.0191 14.7032C38.6188 15.1733 38.0766 15.5246 37.4541 15.9254L37.4403 15.9343C36.8457 16.3171 36.176 16.7482 35.6661 17.3571C35.2217 17.8878 34.9073 18.5403 34.8155 19.3894C33.4907 19.2325 32.4599 18.4179 31.723 17.2665C30.8949 15.9727 30.4729 14.2969 30.4729 12.8293C30.4729 9.26632 32.8256 6.30954 36.9153 4.98185C38.4832 6.6578 39.6611 9.19629 39.6611 12.8293Z" fill="#C6DEC4" stroke="#A2C59F" stroke-width="1.00117"/>
<path d="M37.1307 5.7134C37.3161 5.50826 37.3 5.19171 37.0949 5.00637C36.8897 4.82103 36.5732 4.83708 36.3878 5.04222L37.1307 5.7134ZM36.3878 5.04222L36.2647 5.17852L37.0076 5.8497L37.1307 5.7134L36.3878 5.04222ZM36.2647 5.17852C35.1268 6.43798 34.3198 7.96052 33.9162 9.60922L34.8887 9.84725C35.2528 8.35973 35.9809 6.98603 37.0076 5.8497L36.2647 5.17852Z" fill="#A2C59F"/>
<path d="M45.5588 35.8447C46.3952 37.6384 46.4102 39.1098 46.0426 40.4431C45.6641 41.8158 44.8767 43.0669 44.0202 44.4256L44.0157 44.4328C43.1813 45.7563 42.281 47.1844 41.8496 48.8009C41.4526 50.2887 41.4562 51.912 42.1763 53.762C39.1226 54.935 36.0397 54.241 33.316 52.5138C30.4019 50.6658 27.9657 47.6677 26.5794 44.6949C23.1607 37.3634 25.2453 29.0524 32.3871 22.5142C37.2337 24.389 42.0991 28.4254 45.5588 35.8447Z" fill="#C6DEC4" stroke="#A2C59F" stroke-width="1.34773"/>
<path d="M33.1796 24.1304C33.289 23.7747 33.0893 23.3976 32.7336 23.2882C32.3779 23.1788 32.0008 23.3785 31.8914 23.7342L33.1796 24.1304ZM31.2239 34.8675C31.2965 35.2325 31.6512 35.4696 32.0163 35.397C32.3813 35.3244 32.6183 34.9697 32.5458 34.6047L31.2239 34.8675ZM31.8914 23.7342L31.3921 25.3575L32.6803 25.7537L33.1796 24.1304L31.8914 23.7342ZM30.9711 33.5958L31.2239 34.8675L32.5458 34.6047L32.2929 33.333L30.9711 33.5958ZM31.3921 25.3575C30.5712 28.0263 30.4265 30.8573 30.9711 33.5958L32.2929 33.333C31.7919 30.8135 31.925 28.209 32.6803 25.7537L31.3921 25.3575Z" fill="#A2C59F"/>
<path d="M78.9941 55.3745C80.7081 54.3849 82.1726 54.2417 83.5328 54.4917C84.9333 54.7491 86.2482 55.4245 87.6764 56.1594L87.6839 56.1632C89.0752 56.879 90.5763 57.6514 92.2243 57.9403C93.741 58.2061 95.3578 58.0611 97.138 57.1825C98.5727 60.1223 98.15 63.254 96.6668 66.1178C95.0798 69.182 92.3054 71.8702 89.4647 73.5102C82.4591 77.5549 73.998 76.2027 66.8623 69.6578C68.3076 64.6663 71.9045 59.4676 78.9941 55.3745Z" fill="#C6DEC4" stroke="#A2C59F" stroke-width="1.34773"/>
<path d="M68.4035 68.7276C68.0396 68.6496 67.6814 68.8813 67.6034 69.2452C67.5254 69.6091 67.7571 69.9674 68.121 70.0454L68.4035 68.7276ZM79.2701 69.74C79.6274 69.6359 79.8327 69.2618 79.7286 68.9045C79.6245 68.5472 79.2504 68.342 78.8931 68.4461L79.2701 69.74ZM77.8369 69.4558L77.6483 68.8088L77.8369 69.4558ZM68.121 70.0454L69.7817 70.4013L70.0641 69.0835L68.4035 68.7276L68.121 70.0454ZM78.0254 70.1027L79.2701 69.74L78.8931 68.4461L77.6483 68.8088L78.0254 70.1027ZM69.7817 70.4013C72.5119 70.9865 75.3447 70.8839 78.0254 70.1027L77.6483 68.8088C75.1821 69.5275 72.5759 69.6219 70.0641 69.0835L69.7817 70.4013Z" fill="#A2C59F"/>
<path d="M66.1327 71.7316C67.4264 72.0783 68.1834 72.7047 68.7069 73.464C69.2538 74.2571 69.5628 75.2139 69.9085 76.2924L69.9144 76.3108C70.2466 77.3472 70.6158 78.499 71.3073 79.4843C71.9209 80.3588 72.7735 81.0857 74.0256 81.5511C73.2699 83.5354 71.6078 84.7831 69.5594 85.4337C67.2946 86.1529 64.6259 86.1121 62.4366 85.5254C57.0944 84.094 53.6229 79.3693 53.2954 72.7204C56.4281 71.0309 60.6986 70.2756 66.1327 71.7316Z" fill="#C6DEC4" stroke="#A2C59F" stroke-width="1.34773"/>
<path d="M54.4828 72.7972C54.2806 72.4847 53.8634 72.3953 53.5509 72.5974C53.2385 72.7996 53.149 73.2168 53.3512 73.5293L54.4828 72.7972ZM53.3512 73.5293L53.5043 73.7658L54.6358 73.0337L54.4828 72.7972L53.3512 73.5293ZM53.5043 73.7658C54.91 75.9385 56.8337 77.7278 59.1024 78.9727L59.7508 77.7911C57.6779 76.6537 55.9202 75.0189 54.6358 73.0337L53.5043 73.7658Z" fill="#A2C59F"/>
<path d="M52.2074 65.2366C52.8771 66.3965 52.9695 67.3747 52.8027 68.2818C52.6286 69.2293 52.1706 70.1244 51.6524 71.1315L51.6436 71.1486C51.1457 72.1164 50.5923 73.1919 50.3844 74.3776C50.2 75.4299 50.2888 76.5467 50.8452 77.7611C48.9077 78.6299 46.8501 78.3369 44.9417 77.3484C42.8317 76.2556 40.9735 74.3397 39.8402 72.3768C37.0749 67.5871 37.9611 61.7915 42.4309 56.8584C45.8407 57.8789 49.3945 60.3645 52.2074 65.2366Z" fill="#C6DEC4" stroke="#A2C59F" stroke-width="1.34773"/>
<path d="M43.2161 57.7523C43.2941 57.3884 43.0623 57.0302 42.6984 56.9522C42.3345 56.8742 41.9763 57.106 41.8983 57.4699L43.2161 57.7523ZM41.8983 57.4699L41.8392 57.7453L43.157 58.0278L43.2161 57.7523L41.8983 57.4699ZM41.8392 57.7453C41.2969 60.2757 41.392 62.9012 42.1159 65.3857L43.4098 65.0086C42.7484 62.7386 42.6615 60.3397 43.157 58.0278L41.8392 57.7453Z" fill="#A2C59F"/>
</svg>
