<svg width="96" height="96" viewBox="0 0 96 96" fill="none" xmlns="http://www.w3.org/2000/svg">
<g filter="url(#filter0_d)">
<rect x="10" y="5" width="76" height="76" rx="5.79048" fill="white"/>
<path d="M49.0677 49.22L44.3134 48.253V42.2901C44.5418 41.2694 44.9245 40.4367 45.4617 39.7921C46.0124 39.1474 46.657 38.8251 47.3956 38.8251C48.1612 38.8251 49.0073 39.1206 49.9339 39.7115C50.5114 39.228 50.9613 38.711 51.2836 38.1603C51.606 37.5963 51.7671 36.9583 51.7671 36.2465C51.7671 35.4676 51.5052 34.8162 50.9815 34.2925C50.4711 33.7687 49.7795 33.5068 48.9065 33.5068C47.8993 33.5068 46.9592 33.903 46.0862 34.6954C45.2267 35.4743 44.5485 36.6629 44.0516 38.261L43.6688 38.1603L44.0516 34.4335L43.4271 33.7888L36.8598 34.4536L36.4569 36.9113L39.5189 38.1805V48.535L36.4972 49.6229L36.1748 51.9799H48.8259L49.0677 49.22ZM56.1386 52.5641C57.2667 52.5641 58.1196 52.3089 58.697 51.7985C59.2745 51.2748 59.5633 50.6033 59.5633 49.784C59.5633 49.3274 59.4424 48.8977 59.2007 48.4948C58.9589 48.0919 58.5762 47.7628 58.0524 47.5076C57.5421 47.2525 56.9041 47.1249 56.1386 47.1249C55.4134 47.1249 54.8023 47.2525 54.3054 47.5076C53.8085 47.7628 53.4392 48.0919 53.1974 48.4948C52.9557 48.8977 52.8348 49.3274 52.8348 49.784C52.8348 50.5764 53.1034 51.2412 53.6406 51.7784C54.1778 52.3022 55.0105 52.5641 56.1386 52.5641Z" fill="#152F37"/>
</g>
<defs>
<filter id="filter0_d" x="0" y="0" width="96" height="96" filterUnits="userSpaceOnUse" color-interpolation-filters="sRGB">
<feFlood flood-opacity="0" result="BackgroundImageFix"/>
<feColorMatrix in="SourceAlpha" type="matrix" values="0 0 0 0 0 0 0 0 0 0 0 0 0 0 0 0 0 0 127 0"/>
<feOffset dy="5"/>
<feGaussianBlur stdDeviation="5"/>
<feColorMatrix type="matrix" values="0 0 0 0 0.189479 0 0 0 0 0.328021 0 0 0 0 0.425 0 0 0 0.12 0"/>
<feBlend mode="normal" in2="BackgroundImageFix" result="effect1_dropShadow"/>
<feBlend mode="normal" in="SourceGraphic" in2="effect1_dropShadow" result="shape"/>
</filter>
</defs>
</svg>
