<svg width="96" height="96" viewBox="0 0 96 96" fill="none" xmlns="http://www.w3.org/2000/svg">
<g filter="url(#filter0_d)">
<rect x="10" y="5" width="76" height="76" rx="5.79048" fill="#152F37"/>
<path d="M52.8598 50.22L48.1056 49.253V43.2901C48.3339 42.2694 48.7166 41.4367 49.2539 40.7921C49.8045 40.1474 50.4491 39.8251 51.1878 39.8251C51.9533 39.8251 52.7994 40.1206 53.7261 40.7115C54.3036 40.228 54.7535 39.711 55.0758 39.1603C55.3981 38.5963 55.5593 37.9583 55.5593 37.2465C55.5593 36.4676 55.2974 35.8162 54.7736 35.2925C54.2633 34.7687 53.5716 34.5068 52.6987 34.5068C51.6914 34.5068 50.7513 34.903 49.8783 35.6954C49.0188 36.4743 48.3406 37.6629 47.8437 39.261L47.4609 39.1603L47.8437 35.4335L47.2192 34.7888L40.6519 35.4536L40.249 37.9113L43.311 39.1805V49.535L40.2893 50.6229L39.967 52.9799H52.6181L52.8598 50.22ZM59.9307 53.5641C61.0589 53.5641 61.9117 53.3089 62.4892 52.7985C63.0667 52.2748 63.3554 51.6033 63.3554 50.784C63.3554 50.3274 63.2345 49.8977 62.9928 49.4948C62.7511 49.0919 62.3683 48.7628 61.8445 48.5076C61.3342 48.2525 60.6963 48.1249 59.9307 48.1249C59.2055 48.1249 58.5945 48.2525 58.0975 48.5076C57.6006 48.7628 57.2313 49.0919 56.9896 49.4948C56.7478 49.8977 56.627 50.3274 56.627 50.784C56.627 51.5764 56.8956 52.2412 57.4328 52.7784C57.97 53.3022 58.8026 53.5641 59.9307 53.5641Z" fill="white"/>
</g>
<defs>
<filter id="filter0_d" x="0" y="0" width="96" height="96" filterUnits="userSpaceOnUse" color-interpolation-filters="sRGB">
<feFlood flood-opacity="0" result="BackgroundImageFix"/>
<feColorMatrix in="SourceAlpha" type="matrix" values="0 0 0 0 0 0 0 0 0 0 0 0 0 0 0 0 0 0 127 0"/>
<feOffset dy="5"/>
<feGaussianBlur stdDeviation="5"/>
<feColorMatrix type="matrix" values="0 0 0 0 0.189479 0 0 0 0 0.328021 0 0 0 0 0.425 0 0 0 0.12 0"/>
<feBlend mode="normal" in2="BackgroundImageFix" result="effect1_dropShadow"/>
<feBlend mode="normal" in="SourceGraphic" in2="effect1_dropShadow" result="shape"/>
</filter>
</defs>
</svg>
