<svg width="362" height="176" viewBox="50 0 462 176" fill="none" xmlns="http://www.w3.org/2000/svg"><path d="M118.882 37.48c-1.46-1.1-2.257-2.253-2.257-3.27v-7.912c0-1.441 1.599-2.455 4.291-2.718l138.423-13.567c4.246-.416 10.08 1.116 13.522 3.55l161.322 114.138c1.638 1.159 2.542 2.396 2.542 3.479v6.291c0 1.352-1.407 2.332-3.824 2.664l-142.444 19.559c-4.376.601-10.757-1.056-14.274-3.706L118.882 37.481z" fill="#646363"/><path d="M119.121 28.422c-3.528-2.66-2.842-5.314 1.533-5.928L260.992 2.77c4.375-.615 10.783 1.043 14.311 3.701l159.14 119.921c3.529 2.659 2.843 5.313-1.533 5.928l-140.337 19.723c-4.376.615-10.783-1.042-14.312-3.701l-159.14-119.92z" fill="#878787"/><path d="M417.08 121.425L272.526 12.495c-3.562-2.684-10.049-4.342-14.418-3.685l-26.602 4.001c-1.746.263-2.841.883-1.431 1.958l.12.09c.576.434 2.428 1.497-.634 1.927-3.062.43-22.594 3.433-29.293 4.374l-28.786 4.156c-5.378.756-5.865-3.218-9.899-2.651l-27.037 3.8c-4.376.615-5.062 3.269-1.533 5.928l144.229 108.685c3.529 2.659 9.936 4.316 14.312 3.701l123.993-17.426c4.375-.615 5.061-3.269 1.533-5.928z" fill="#EDEDED"/><path d="M164.36 46.273c-1.323-.998-1.065-1.993.575-2.224l113.518-15.953c1.641-.23 4.044.39 5.367 1.388l23.381 17.618c1.323.998 1.066 1.993-.575 2.224L193.108 65.278c-1.64.23-4.043-.39-5.366-1.388L164.36 46.273z" fill="#A39FCF"/><path d="M203.715 75.928c-1.323-.997-1.066-1.992.575-2.222l50.379-7.08c1.64-.231 4.043.39 5.366 1.387l23.381 17.62c1.324.996 1.066 1.992-.575 2.222l-50.378 7.08c-1.641.23-4.043-.39-5.367-1.388L203.715 75.93z" fill="#BFD1A8"/><path d="M239.709 102.698c-1.323-.997-1.066-1.993.575-2.223l108.752-15.284c1.64-.23 4.043.39 5.366 1.388l27.229 20.518c1.323.997 1.066 1.992-.575 2.223l-108.752 15.284c-1.64.23-4.043-.391-5.366-1.388l-27.229-20.518z" fill="#CDCDCD"/><path d="M241.842 104.212l106.211-14.927c1.641-.23 4.044.39 5.367 1.388l25.285 19.054-106.211 14.927c-1.641.23-4.044-.391-5.367-1.388l-25.285-19.054z" fill="#fff"/><path d="M309.398 100.468c-1.323-.997-1.066-1.992.575-2.223l38.641-5.43c1.641-.23 4.044.39 5.367 1.388l17.51 13.194c1.323.997 1.066 1.993-.575 2.223l-38.641 5.431c-1.641.23-4.044-.391-5.367-1.388l-17.51-13.195z" fill="#EEC6B0"/><path d="M257.486 116.078l61.188-8.599 3.748 2.824-61.187 8.599-3.749-2.824zM176.792 128.916l64.106-9.01 3.749 2.825-64.107 9.009-3.748-2.824zM250.151 110.576l61.271-8.611 3.748 2.825-61.271 8.611-3.748-2.825zM169.456 123.414l64.107-9.01 3.748 2.825-64.106 9.009-3.749-2.824z" fill="#8A8989"/><path d="M223.671 116.217c-1.324-.997-1.066-1.992.574-2.223l4.104-.576c1.641-.231 4.044.39 5.367 1.388l23.381 17.618c1.323.998 1.066 1.993-.575 2.223l-4.104.577c-1.64.231-4.043-.391-5.366-1.388l-23.381-17.619z" fill="#646363"/><path d="M276.103 63.903c-1.324-.997-1.066-1.992.575-2.223l34.831-4.895c1.64-.23 4.043.39 5.366 1.388l23.381 17.619c1.324.997 1.066 1.992-.574 2.223l-34.831 4.895c-1.641.23-4.044-.391-5.367-1.388l-23.381-17.619z" fill="#9CAB8A"/><path d="M331.408 78.461c-1.324-.997-1.066-1.992.575-2.223l38.641-5.43c1.641-.231 4.043.39 5.367 1.387L393.5 85.39c1.324.997 1.066 1.992-.575 2.223l-38.641 5.43c-1.641.231-4.043-.39-5.367-1.387L331.408 78.46z" fill="#E7A784"/><path d="M117.5 121.279v5.15c0 .37.282.79.801 1.192l44.056 34.14c.878.68 2.516 1.108 3.623.946l37.623-5.502c.884-.13 1.397-.494 1.397-.994v-5.072c0-1.086-2.337-2.377-4.747-2.623l-18.365-1.873a9.167 9.167 0 01-2.726-.723l-56.05-24.924c-2.542-1.131-5.612-.976-5.612.283z" fill="#89AEB0"/><path d="M118.367 122.105c-1.323-.997-1.066-1.992.575-2.222l36.009-5.061c1.64-.231 4.043.391 5.366 1.388l43.668 32.905c1.323.998 1.066 1.993-.575 2.223l-36.009 5.061c-1.641.231-4.043-.391-5.367-1.388l-43.667-32.906z" fill="#A8CFD1"/><path d="M286.516 45.772c-1.323-.997-1.066-1.992.575-2.223l40.354-5.671c1.64-.23 4.043.39 5.366 1.388l23.382 17.619c1.323.997 1.065 1.992-.575 2.223l-40.354 5.67c-1.641.231-4.043-.39-5.367-1.387l-23.381-17.619z" fill="#BFD1A8"/><path d="M178.663 29.447c-1.323-.997-1.066-1.993.575-2.223l109.714-15.42c1.64-.23 4.043.391 5.366 1.389l23.381 17.619c1.324.997 1.066 1.992-.574 2.222l-109.714 15.42c-1.641.23-4.043-.391-5.367-1.388l-23.381-17.62z" fill="#BBB8E3"/><path d="M151.927 121.739l-1.655 9.312 20.835 5.141-2.219 8.886" stroke="#fff" stroke-width="2"/></svg>