<svg width="191" height="217" viewBox="0 0 191 217" fill="none" xmlns="http://www.w3.org/2000/svg"><rect x="17" y="50.197" width="108" height="166" rx="4" fill="#282828"/><path d="M22 60.197c0-2.21 1.785-4 3.994-4H46.5c9.5 0-5.5 4.258 24 4.258s15.003-4.258 25-4.258h20.506a3.995 3.995 0 013.994 4v147a4 4 0 01-4 4H26a4 4 0 01-4-4v-147z" fill="#595959"/><circle cx="155.995" cy="74.464" r="5" transform="rotate(-135 155.995 74.464)" fill="#AAE496" fill-opacity=".5"/><circle cx="160.536" cy="50.732" r="3.914" transform="rotate(-135 160.536 50.732)" fill="#AAE496" fill-opacity=".5"/><circle cx="127.004" cy="62.443" r="5" transform="rotate(-135 127.004 62.443)" fill="#F27575" fill-opacity=".5"/><circle cx="139.107" cy="51.303" r="3.611" transform="rotate(-135 139.107 51.303)" fill="#F27575" fill-opacity=".5"/><circle cx="113.071" cy="34.268" r="5" transform="rotate(-135 113.071 34.268)" fill="#88CFF6" fill-opacity=".5"/><circle cx="132.036" cy="30.268" r="3.611" transform="rotate(-135 132.036 30.268)" fill="#88CFF6" fill-opacity=".5"/><circle cx="147.51" cy="104.162" r="10" transform="rotate(-135 147.51 104.162)" fill="#AAE496" fill-opacity=".5"/><circle cx="102.255" cy="87.192" r="10" transform="rotate(-135 102.255 87.192)" fill="#F27575" fill-opacity=".5"/><circle cx="85.142" cy="44.339" r="10" transform="rotate(-135 85.142 44.339)" fill="#88CFF6" fill-opacity=".5"/><rect x="29" y="104.197" width="82" height="18" rx="3" fill="#F27575"/><rect x="29" y="133.197" width="82" height="18" rx="3" fill="#78BE5F"/><rect y="130.197" width="106" height="17" rx="3" fill="#AAE496"/><rect x="29" y="162.197" width="42" height="18" rx="3" fill="#BB58D2"/><rect y="158.197" width="67" height="19" rx="3" fill="#D28AE3"/><rect x="29" y="62.197" width="20" height="18" rx="3" fill="#88CFF6"/><path d="M147.923 18.05c.599-1.842 3.206-1.842 3.804 0l3.487 10.73h11.281c1.938 0 2.743 2.48 1.176 3.618l-9.127 6.632 3.486 10.73c.599 1.842-1.51 3.374-3.078 2.235l-9.127-6.631-9.127 6.631c-1.567 1.139-3.676-.393-3.077-2.236l3.486-10.73-9.127-6.63c-1.568-1.14-.762-3.619 1.175-3.619h11.282l3.486-10.73z" fill="#FDEA40"/></svg>